<?xml version="1.0" standalone="no"?>
<!DOCTYPE svg PUBLIC "-//W3C//DTD SVG 20010904//EN"
 "http://www.w3.org/TR/2001/REC-SVG-20010904/DTD/svg10.dtd">
<svg version="1.0" xmlns="http://www.w3.org/2000/svg"
 width="320.000000pt" height="320.000000pt" viewBox="0 0 320.000000 320.000000"
 preserveAspectRatio="xMidYMid meet">
<metadata>
Created by potrace 1.11, written by Peter Selinger 2001-2013
</metadata>
<g transform="translate(0.000000,320.000000) scale(0.100000,-0.100000)"
fill="#000000" stroke="none">
<path d="M1429 3185 c-365 -60 -665 -267 -844 -581 -135 -237 -185 -540 -127
-775 22 -90 70 -221 128 -347 19 -41 34 -75 34 -76 0 -3 30 -58 148 -266 14
-25 38 -64 53 -87 16 -23 29 -46 29 -52 0 -6 4 -11 9 -11 5 0 14 -13 21 -30 7
-16 16 -30 21 -30 5 0 9 -7 9 -15 0 -8 5 -15 10 -15 6 0 10 -5 10 -10 0 -6 18
-35 40 -65 22 -30 40 -57 40 -60 0 -16 465 -617 563 -728 l34 -38 104 123
c163 191 268 324 416 527 51 69 96 131 100 136 70 85 332 529 387 655 16 36
39 89 52 118 13 29 24 57 24 62 0 6 4 18 10 28 5 9 22 58 37 107 24 80 27 109
30 265 3 186 -3 228 -53 385 -125 395 -484 703 -903 776 -87 16 -298 18 -382
4z"/>
</g>
</svg>
