<?xml version="1.0" encoding="UTF-8" standalone="no"?>
<!DOCTYPE svg PUBLIC "-//W3C//DTD SVG 1.1//EN" "http://www.w3.org/Graphics/SVG/1.1/DTD/svg11.dtd">
<svg version="1.1" xmlns="http://www.w3.org/2000/svg" xmlns:xlink="http://www.w3.org/1999/xlink" preserveAspectRatio="xMidYMid meet" viewBox="1118.4929622428524 66.13765868644407 145.0810040240865 197.72468262711197" width="44.03" height="60"><defs><path d="M1118.49 138.68C1118.49 181.37 1191.03 263.86 1191.03 263.86C1191.03 263.86 1263.57 184.28 1263.57 138.68C1263.57 98.47 1231.24 66.14 1191.03 66.14C1151.24 66.14 1118.49 98.47 1118.49 138.68Z" id="b3ME7leYtm"></path><linearGradient id="gradientbc3tSiiq9" gradientUnits="userSpaceOnUse" x1="1191.14" y1="65.94" x2="1191.14" y2="263.64"><stop style="stop-color: #08b8f6;stop-opacity: 1" offset="0%"></stop><stop style="stop-color: #1098af;stop-opacity: 1" offset="100%"></stop></linearGradient><path d="M1188.49 90.02L1189.13 90.1L1189.77 90.2L1190.4 90.32L1191.02 90.47L1191.63 90.64L1192.24 90.83L1192.85 91.03L1193.44 91.25L1194.03 91.48L1194.62 91.73L1195.21 91.99L1195.79 92.26L1196.36 92.54L1196.94 92.82L1197.51 93.11L1198.09 93.41L1198.66 93.7L1199.23 94L1199.81 94.3L1200.38 94.59L1200.96 94.88L1201.54 95.17L1202.12 95.45L1202.7 95.72L1203.29 95.98L1203.89 96.23L1204.49 96.47L1205.09 96.69L1205.7 96.9L1206.32 97.09L1206.94 97.26L1207.57 97.41L1208.21 97.54L1208.86 97.64L1208.89 97.67L1208.92 97.7L1208.94 97.73L1208.97 97.76L1209 97.8L1209.02 97.83L1209.04 97.86L1209.06 97.89L1209.08 97.92L1209.1 97.95L1209.12 97.97L1209.14 98L1209.16 98.03L1209.18 98.06L1209.21 98.11L1209.23 98.14L1209.24 98.16L1209.26 98.19L1209.27 98.21L1209.29 98.23L1209.3 98.26L1209.32 98.28L1209.34 98.3L1209.35 98.32L1209.37 98.34L1209.39 98.35L1209.4 98.37L1209.42 98.38L1209.44 98.4L1209.46 98.41L1209.48 98.42L1209.5 98.43L1209.53 98.44L1209.55 98.45L1209.57 98.46L1209.6 98.46L1209.63 98.47L1209.66 98.47L1209.69 98.47L1209.83 98.63L1209.94 98.81L1210.04 98.99L1210.1 99.19L1210.15 99.4L1210.18 99.62L1210.2 99.85L1210.19 100.08L1210.18 100.32L1210.15 100.56L1210.12 100.81L1210.07 101.06L1210.03 101.32L1209.97 101.57L1209.92 101.83L1209.87 102.08L1209.81 102.34L1209.77 102.59L1209.72 102.84L1209.69 103.08L1209.66 103.32L1209.65 103.55L1209.64 103.78L1209.66 103.99L1209.69 104.2L1209.74 104.39L1209.8 104.58L1209.9 104.75L1210.01 104.91L1210.15 105.06L1210.32 105.19L1210.52 105.3L1210.75 105.4L1211.02 105.48L1211.32 105.54L1211.66 105.58L1212.03 105.6L1212.45 105.59L1212.91 105.57L1213.42 105.52L1213.72 105.48L1214.02 105.44L1214.31 105.39L1214.59 105.33L1214.86 105.27L1215.12 105.19L1215.37 105.11L1215.62 105.03L1215.86 104.93L1216.09 104.83L1216.31 104.72L1216.52 104.61L1216.73 104.48L1216.93 104.36L1217.12 104.22L1217.3 104.08L1217.48 103.93L1217.65 103.77L1217.82 103.61L1217.98 103.44L1218.13 103.27L1218.28 103.09L1218.42 102.9L1218.55 102.71L1218.68 102.51L1218.8 102.31L1218.92 102.1L1219.03 101.88L1219.14 101.66L1219.25 101.44L1219.35 101.2L1219.44 100.97L1219.53 100.72L1219.62 100.48L1219.7 100.22L1219.77 99.97L1219.85 99.7L1219.92 99.43L1219.99 99.16L1220.05 98.88L1220.08 98.76L1220.12 98.65L1220.16 98.54L1220.2 98.44L1220.24 98.34L1220.29 98.25L1220.34 98.16L1220.39 98.08L1220.45 98.01L1220.5 97.94L1220.56 97.88L1220.62 97.82L1220.69 97.76L1220.75 97.72L1220.82 97.67L1220.89 97.64L1220.96 97.61L1221.04 97.58L1221.11 97.56L1221.19 97.54L1221.27 97.52L1221.35 97.52L1221.43 97.51L1221.51 97.51L1221.6 97.52L1221.68 97.53L1221.77 97.54L1221.85 97.56L1221.94 97.58L1222.03 97.6L1222.12 97.63L1222.21 97.66L1222.3 97.7L1222.39 97.74L1222.49 97.79L1222.58 97.83L1222.67 97.88L1222.76 97.94L1222.86 97.99L1222.95 98.06L1223.13 98.18L1223.31 98.31L1223.47 98.44L1223.62 98.56L1223.77 98.7L1223.91 98.83L1224.04 98.96L1224.16 99.1L1224.27 99.23L1224.37 99.37L1224.46 99.51L1224.55 99.65L1224.63 99.79L1224.7 99.93L1224.77 100.07L1224.82 100.22L1224.87 100.36L1224.91 100.51L1224.95 100.65L1224.97 100.8L1224.99 100.95L1225 101.1L1225.01 101.25L1225.01 101.4L1225 101.55L1224.99 101.7L1224.97 101.85L1224.94 102L1224.91 102.16L1224.87 102.31L1224.83 102.46L1224.78 102.62L1224.73 102.77L1224.67 102.93L1224.6 103.08L1224.53 103.24L1224.45 103.39L1224.37 103.55L1224.29 103.7L1224.19 103.86L1224.07 104.07L1223.94 104.29L1223.8 104.5L1223.66 104.71L1223.52 104.91L1223.37 105.11L1223.22 105.31L1223.07 105.51L1222.91 105.71L1222.75 105.91L1222.59 106.1L1222.42 106.29L1222.26 106.48L1222.09 106.67L1221.91 106.86L1221.74 107.05L1221.57 107.24L1221.39 107.42L1221.21 107.61L1221.03 107.8L1220.86 107.98L1220.68 108.17L1220.5 108.36L1220.31 108.54L1220.13 108.73L1219.95 108.92L1219.77 109.11L1219.6 109.3L1219.42 109.49L1219.24 109.69L1219.06 109.88L1218.89 110.08L1218.72 110.28L1218.54 110.48L1218.37 110.68L1218.21 110.89L1218.04 111.09L1217.88 111.31L1217.72 111.52L1217.56 111.73L1217.11 112.36L1216.68 112.98L1216.27 113.59L1215.88 114.21L1215.52 114.83L1215.18 115.44L1214.87 116.05L1214.58 116.67L1214.31 117.28L1214.07 117.89L1213.84 118.5L1213.65 119.11L1213.47 119.71L1213.32 120.32L1213.19 120.93L1213.09 121.54L1213 122.14L1212.95 122.75L1212.91 123.36L1212.9 123.96L1212.91 124.57L1212.95 125.18L1213 125.78L1213.09 126.39L1213.19 127L1213.32 127.6L1213.47 128.21L1213.65 128.82L1213.84 129.43L1214.07 130.04L1214.31 130.65L1214.58 131.26L1214.87 131.87L1215.18 132.49L1215.52 133.1L1215.88 133.72L1216.27 134.33L1216.68 134.95L1217.11 135.57L1217.56 136.19L1217.89 136.66L1218.19 137.12L1218.47 137.59L1218.72 138.05L1218.94 138.52L1219.14 138.98L1219.32 139.44L1219.46 139.9L1219.58 140.35L1219.68 140.8L1219.75 141.25L1219.8 141.7L1219.82 142.14L1219.81 142.58L1219.78 143.01L1219.73 143.44L1219.65 143.86L1219.55 144.28L1219.42 144.7L1219.27 145.1L1219.1 145.5L1218.9 145.9L1218.67 146.29L1218.43 146.67L1218.16 147.04L1217.86 147.4L1217.55 147.76L1217.21 148.11L1216.84 148.45L1216.46 148.78L1216.05 149.1L1215.61 149.42L1215.16 149.72L1214.68 150.01L1214.18 150.29L1213.66 150.56L1213.11 150.82L1212.54 151.07L1211.96 151.3L1211.34 151.53L1211.03 151.65L1210.71 151.76L1210.39 151.86L1210.06 151.95L1209.73 152.04L1209.4 152.12L1209.07 152.2L1208.73 152.27L1208.4 152.34L1208.07 152.42L1207.74 152.49L1207.41 152.56L1207.09 152.64L1206.77 152.72L1206.46 152.8L1206.16 152.89L1205.86 152.99L1205.57 153.1L1205.29 153.22L1205.02 153.34L1204.76 153.48L1204.52 153.63L1204.28 153.8L1204.06 153.98L1203.86 154.17L1203.66 154.38L1203.49 154.62L1203.33 154.87L1203.19 155.14L1203.07 155.43L1202.96 155.75L1202.88 156.09L1202.82 156.46L1202.78 156.85L1202.76 157.27L1202.77 157.72L1202.8 158.2L1202.86 158.7L1202.94 159.24L1203.05 159.82L1203.13 160.26L1203.16 160.66L1203.15 161.01L1203.11 161.32L1203.04 161.6L1202.93 161.84L1202.79 162.04L1202.63 162.21L1202.44 162.36L1202.23 162.47L1201.99 162.57L1201.73 162.64L1201.46 162.69L1201.17 162.73L1200.87 162.75L1200.55 162.76L1200.23 162.76L1199.9 162.75L1199.56 162.74L1199.22 162.72L1198.88 162.71L1198.54 162.69L1198.2 162.68L1197.86 162.68L1197.53 162.69L1197.21 162.71L1196.9 162.75L1196.61 162.8L1196.32 162.87L1196.06 162.97L1195.81 163.08L1195.59 163.23L1195.38 163.4L1195.2 163.6L1195.05 163.84L1194.93 164.12L1194.84 164.43L1194.78 164.78L1194.75 165.18L1194.76 165.62L1194.81 165.8L1194.87 165.97L1194.95 166.14L1195.06 166.29L1195.18 166.43L1195.31 166.57L1195.46 166.71L1195.61 166.83L1195.78 166.95L1195.96 167.07L1196.14 167.19L1196.32 167.3L1196.51 167.41L1196.7 167.52L1196.89 167.63L1197.08 167.74L1197.26 167.86L1197.44 167.97L1197.61 168.09L1197.77 168.21L1197.92 168.34L1198.06 168.47L1198.18 168.61L1198.29 168.76L1198.37 168.91L1198.44 169.07L1198.49 169.24L1198.52 169.42L1198.52 169.62L1198.49 169.82L1198.44 170.03L1198.36 170.26L1198.24 170.51L1198.1 170.77L1197.92 171.04L1197.7 171.33L1197.44 171.64L1197.14 171.96L1196.8 172.31L1196.42 172.67L1196.24 172.83L1196.07 173.01L1195.92 173.2L1195.77 173.41L1195.63 173.62L1195.5 173.85L1195.38 174.1L1195.26 174.35L1195.15 174.61L1195.05 174.88L1194.95 175.16L1194.86 175.44L1194.76 175.73L1194.67 176.03L1194.59 176.33L1194.5 176.64L1194.41 176.95L1194.32 177.27L1194.23 177.58L1194.14 177.9L1194.05 178.22L1193.95 178.54L1193.85 178.86L1193.74 179.17L1193.62 179.49L1193.5 179.8L1193.37 180.11L1193.23 180.41L1193.08 180.71L1192.92 181L1192.76 181.29L1192.58 181.57L1192.38 181.84L1192.18 182.1L1191.96 182.35L1191.72 182.6L1191.47 182.83L1191.2 183.05L1190.92 183.25L1190.62 183.45L1190.59 183.48L1190.56 183.52L1190.53 183.57L1190.5 183.62L1190.47 183.67L1190.44 183.73L1190.41 183.8L1190.38 183.86L1190.35 183.94L1190.32 184.01L1190.29 184.09L1190.27 184.17L1190.24 184.25L1190.22 184.33L1190.2 184.42L1190.17 184.5L1190.15 184.59L1190.13 184.67L1190.12 184.76L1190.1 184.85L1190.09 184.93L1190.07 185.01L1190.06 185.1L1190.05 185.18L1190.04 185.26L1190.04 185.33L1190.03 185.4L1190.03 185.47L1190.03 185.54L1190.04 185.6L1190.04 185.66L1190.05 185.71L1190.06 185.76L1190.07 185.81L1190.09 185.84L1190.1 185.87L1190.12 185.9L1190.15 185.92L1190.17 185.93L1190.2 185.93L1191.15 186.46L1191.99 186.97L1192.73 187.48L1193.38 187.99L1193.94 188.48L1194.42 188.97L1194.81 189.46L1195.13 189.94L1195.37 190.41L1195.54 190.87L1195.65 191.34L1195.7 191.79L1195.69 192.25L1195.62 192.69L1195.51 193.14L1195.35 193.58L1195.15 194.02L1194.92 194.45L1194.65 194.88L1194.35 195.31L1194.03 195.74L1193.68 196.16L1193.32 196.58L1192.95 197.01L1192.57 197.43L1192.18 197.84L1191.8 198.26L1191.41 198.68L1191.04 199.1L1190.67 199.52L1190.32 199.93L1189.99 200.35L1189.69 200.77L1189.41 201.19L1189.16 201.61L1188.95 202.04L1188.78 202.46L1188.65 202.89L1188.57 203.32L1188.55 203.76L1188.55 203.82L1188.54 203.88L1188.54 203.95L1188.53 204.01L1188.53 204.08L1188.52 204.15L1188.51 204.22L1188.5 204.29L1188.48 204.36L1188.47 204.43L1188.45 204.5L1188.43 204.58L1188.42 204.65L1188.39 204.73L1188.37 204.81L1188.35 204.88L1188.32 204.96L1188.29 205.04L1188.27 205.13L1188.24 205.21L1188.2 205.29L1188.17 205.38L1188.14 205.46L1188.1 205.55L1188.06 205.64L1188.02 205.72L1187.98 205.81L1187.94 205.9L1187.89 206L1187.85 206.09L1187.8 206.18L1187.75 206.28L1187.7 206.37L1187.65 206.47L1187.59 206.57L1187.54 206.67L1187.48 206.77L1187.42 206.87L1187.36 206.97L1187.3 207.07L1187.54 207.56L1187.75 208.02L1187.93 208.46L1188.08 208.87L1188.21 209.26L1188.31 209.63L1188.39 209.98L1188.45 210.31L1188.48 210.61L1188.49 210.9L1188.48 211.17L1188.45 211.42L1188.4 211.65L1188.33 211.87L1188.24 212.06L1188.13 212.25L1188 212.41L1187.85 212.56L1187.69 212.7L1187.51 212.82L1187.32 212.93L1187.11 213.03L1186.88 213.12L1186.65 213.19L1186.4 213.25L1186.13 213.31L1185.86 213.35L1185.57 213.38L1185.28 213.41L1184.97 213.43L1184.66 213.44L1184.33 213.44L1184 213.44L1183.66 213.43L1183.31 213.42L1182.96 213.4L1182.6 213.37L1182.24 213.35L1181.87 213.32L1181.5 213.29L1181.03 213.28L1180.57 213.24L1180.12 213.18L1179.66 213.09L1179.22 212.98L1178.78 212.86L1178.34 212.71L1177.91 212.54L1177.49 212.36L1177.08 212.16L1176.68 211.94L1176.28 211.71L1175.9 211.47L1175.52 211.22L1175.16 210.95L1174.81 210.68L1174.47 210.4L1174.14 210.11L1173.82 209.81L1173.52 209.51L1173.23 209.2L1172.96 208.9L1172.7 208.59L1172.46 208.28L1172.23 207.97L1172.02 207.66L1171.83 207.36L1171.65 207.06L1171.49 206.76L1171.36 206.47L1171.24 206.19L1171.14 205.92L1171.06 205.65L1171.01 205.4L1170.97 205.16L1170.96 204.93L1170.97 204.72L1171 204.52L1171.06 204.34L1171.14 204.17L1171.55 203.24L1171.92 202.31L1172.25 201.39L1172.53 200.46L1172.78 199.54L1173 198.63L1173.17 197.71L1173.32 196.8L1173.43 195.89L1173.51 194.98L1173.57 194.07L1173.6 193.17L1173.6 192.27L1173.58 191.37L1173.53 190.47L1173.47 189.57L1173.39 188.67L1173.29 187.77L1173.18 186.88L1173.05 185.98L1172.92 185.09L1172.77 184.2L1172.61 183.31L1172.45 182.41L1172.28 181.52L1172.11 180.63L1171.94 179.74L1171.77 178.85L1171.6 177.96L1171.43 177.07L1171.27 176.17L1171.11 175.28L1170.96 174.39L1170.83 173.49L1170.7 172.6L1170.59 171.7L1170.49 170.81L1170.41 169.91L1170.35 169.01L1170.31 168.11L1170.28 167.55L1170.25 166.99L1170.22 166.42L1170.19 165.86L1170.16 165.29L1170.13 164.73L1170.1 164.16L1170.08 163.59L1170.05 163.02L1170.03 162.45L1170.01 161.88L1169.99 161.3L1169.97 160.73L1169.96 160.16L1169.95 159.58L1169.94 159.01L1169.94 158.43L1169.94 157.86L1169.94 157.28L1169.94 156.71L1169.95 156.13L1169.97 155.56L1169.99 154.98L1170.01 154.41L1170.04 153.84L1170.07 153.26L1170.11 152.69L1170.15 152.12L1170.2 151.54L1170.25 150.97L1170.31 150.4L1170.37 149.83L1170.45 149.26L1170.52 148.69L1170.61 148.13L1170.7 147.56L1170.8 147L1170.9 146.43L1171.02 145.87L1171.14 145.31L1171.22 144.84L1171.29 144.38L1171.34 143.92L1171.37 143.46L1171.39 143L1171.39 142.54L1171.38 142.08L1171.36 141.63L1171.32 141.17L1171.28 140.72L1171.22 140.27L1171.16 139.82L1171.09 139.37L1171.01 138.92L1170.92 138.47L1170.82 138.02L1170.73 137.58L1170.62 137.13L1170.52 136.69L1170.41 136.24L1170.3 135.8L1170.19 135.36L1170.08 134.92L1169.97 134.48L1169.87 134.04L1169.76 133.6L1169.66 133.16L1169.56 132.72L1169.47 132.28L1169.39 131.85L1169.31 131.41L1169.24 130.97L1169.18 130.54L1169.13 130.1L1169.09 129.66L1169.05 129.23L1169.04 128.79L1169.03 128.36L1169.04 127.92L1169.06 127.49L1169.1 126.71L1169.13 125.93L1169.17 125.16L1169.21 124.39L1169.26 123.62L1169.31 122.85L1169.37 122.08L1169.43 121.31L1169.49 120.55L1169.56 119.79L1169.63 119.02L1169.71 118.26L1169.79 117.5L1169.88 116.74L1169.97 115.98L1170.07 115.22L1170.17 114.47L1170.28 113.71L1170.39 112.96L1170.51 112.2L1170.64 111.45L1170.78 110.69L1170.92 109.94L1171.06 109.19L1171.22 108.44L1171.38 107.69L1171.55 106.94L1171.72 106.19L1171.9 105.44L1172.1 104.69L1172.29 103.95L1172.5 103.2L1172.71 102.45L1172.94 101.7L1173.17 100.96L1173.41 100.21L1173.65 99.47L1173.91 98.72L1174.18 97.97L1174.45 97.23L1174.61 96.83L1174.76 96.44L1174.91 96.06L1175.07 95.7L1175.22 95.34L1175.37 95L1175.53 94.67L1175.69 94.34L1175.85 94.03L1176.01 93.74L1176.17 93.45L1176.34 93.17L1176.51 92.91L1176.69 92.65L1176.87 92.41L1177.06 92.18L1177.25 91.96L1177.45 91.75L1177.66 91.56L1177.87 91.37L1178.09 91.2L1178.32 91.04L1178.56 90.89L1178.81 90.75L1179.07 90.62L1179.33 90.51L1179.61 90.41L1179.9 90.32L1180.2 90.24L1180.52 90.17L1180.84 90.12L1181.18 90.08L1181.53 90.05L1181.89 90.03L1182.27 90.02L1182.67 90.03L1183.08 90.05L1183.5 90.08L1183.94 90.12L1184.4 90.18L1185.11 90.07L1185.81 90L1186.49 89.96L1187.17 89.95L1187.83 89.97L1188.49 90.02Z" id="e3Jc6Mipuu"></path><path d="M1195.01 219.75L1197.31 220.81L1199.57 221.83L1201.81 222.83L1199.75 223.01L1197.57 222.56L1195.24 221.48L1192.79 219.77L1190.2 217.44L1192.65 218.63L1195.01 219.75Z" id="b3jMa18vMY"></path></defs><g><g><g><use xlink:href="#b3ME7leYtm" opacity="1" fill="url(#gradientbc3tSiiq9)"></use><g><use xlink:href="#b3ME7leYtm" opacity="1" fill-opacity="0" stroke="#000000" stroke-width="1" stroke-opacity="0"></use></g></g><g><use xlink:href="#e3Jc6Mipuu" opacity="1" fill="#ffffff" fill-opacity="1"></use><g><use xlink:href="#e3Jc6Mipuu" opacity="1" fill-opacity="0" stroke="#000000" stroke-width="1" stroke-opacity="0"></use></g></g><g><use xlink:href="#b3jMa18vMY" opacity="1" fill="#ffffff" fill-opacity="1"></use><g><use xlink:href="#b3jMa18vMY" opacity="1" fill-opacity="0" stroke="#000000" stroke-width="1" stroke-opacity="0"></use></g></g></g></g></svg>