<?xml version="1.0" encoding="UTF-8" standalone="no"?>
<!DOCTYPE svg PUBLIC "-//W3C//DTD SVG 1.1//EN" "http://www.w3.org/Graphics/SVG/1.1/DTD/svg11.dtd">
<svg version="1.1" xmlns="http://www.w3.org/2000/svg" xmlns:xlink="http://www.w3.org/1999/xlink" preserveAspectRatio="xMidYMid meet" viewBox="178.5560337330611 66.13765868644407 1085.0179325338777 197.72468262711197" width="700" height="127.56"><defs><path d="M1118.49 138.68C1118.49 181.37 1191.03 263.86 1191.03 263.86C1191.03 263.86 1263.57 184.28 1263.57 138.68C1263.57 98.47 1231.24 66.14 1191.03 66.14C1151.24 66.14 1118.49 98.47 1118.49 138.68Z" id="b3ME7leYtm"></path><linearGradient id="gradientbc3tSiiq9" gradientUnits="userSpaceOnUse" x1="1191.14" y1="65.94" x2="1191.14" y2="263.64"><stop style="stop-color: #08b8f6;stop-opacity: 1" offset="0%"></stop><stop style="stop-color: #1098af;stop-opacity: 1" offset="100%"></stop></linearGradient><path d="M1188.49 90.02L1189.13 90.1L1189.77 90.2L1190.4 90.32L1191.02 90.47L1191.63 90.64L1192.24 90.83L1192.85 91.03L1193.44 91.25L1194.03 91.48L1194.62 91.73L1195.21 91.99L1195.79 92.26L1196.36 92.54L1196.94 92.82L1197.51 93.11L1198.09 93.41L1198.66 93.7L1199.23 94L1199.81 94.3L1200.38 94.59L1200.96 94.88L1201.54 95.17L1202.12 95.45L1202.7 95.72L1203.29 95.98L1203.89 96.23L1204.49 96.47L1205.09 96.69L1205.7 96.9L1206.32 97.09L1206.94 97.26L1207.57 97.41L1208.21 97.54L1208.86 97.64L1208.89 97.67L1208.92 97.7L1208.94 97.73L1208.97 97.76L1209 97.8L1209.02 97.83L1209.04 97.86L1209.06 97.89L1209.08 97.92L1209.1 97.95L1209.12 97.97L1209.14 98L1209.16 98.03L1209.18 98.06L1209.21 98.11L1209.23 98.14L1209.24 98.16L1209.26 98.19L1209.27 98.21L1209.29 98.23L1209.3 98.26L1209.32 98.28L1209.34 98.3L1209.35 98.32L1209.37 98.34L1209.39 98.35L1209.4 98.37L1209.42 98.38L1209.44 98.4L1209.46 98.41L1209.48 98.42L1209.5 98.43L1209.53 98.44L1209.55 98.45L1209.57 98.46L1209.6 98.46L1209.63 98.47L1209.66 98.47L1209.69 98.47L1209.83 98.63L1209.94 98.81L1210.04 98.99L1210.1 99.19L1210.15 99.4L1210.18 99.62L1210.2 99.85L1210.19 100.08L1210.18 100.32L1210.15 100.56L1210.12 100.81L1210.07 101.06L1210.03 101.32L1209.97 101.57L1209.92 101.83L1209.87 102.08L1209.81 102.34L1209.77 102.59L1209.72 102.84L1209.69 103.08L1209.66 103.32L1209.65 103.55L1209.64 103.78L1209.66 103.99L1209.69 104.2L1209.74 104.39L1209.8 104.58L1209.9 104.75L1210.01 104.91L1210.15 105.06L1210.32 105.19L1210.52 105.3L1210.75 105.4L1211.02 105.48L1211.32 105.54L1211.66 105.58L1212.03 105.6L1212.45 105.59L1212.91 105.57L1213.42 105.52L1213.72 105.48L1214.02 105.44L1214.31 105.39L1214.59 105.33L1214.86 105.27L1215.12 105.19L1215.37 105.11L1215.62 105.03L1215.86 104.93L1216.09 104.83L1216.31 104.72L1216.52 104.61L1216.73 104.48L1216.93 104.36L1217.12 104.22L1217.3 104.08L1217.48 103.93L1217.65 103.77L1217.82 103.61L1217.98 103.44L1218.13 103.27L1218.28 103.09L1218.42 102.9L1218.55 102.71L1218.68 102.51L1218.8 102.31L1218.92 102.1L1219.03 101.88L1219.14 101.66L1219.25 101.44L1219.35 101.2L1219.44 100.97L1219.53 100.72L1219.62 100.48L1219.7 100.22L1219.77 99.97L1219.85 99.7L1219.92 99.43L1219.99 99.16L1220.05 98.88L1220.08 98.76L1220.12 98.65L1220.16 98.54L1220.2 98.44L1220.24 98.34L1220.29 98.25L1220.34 98.16L1220.39 98.08L1220.45 98.01L1220.5 97.94L1220.56 97.88L1220.62 97.82L1220.69 97.76L1220.75 97.72L1220.82 97.67L1220.89 97.64L1220.96 97.61L1221.04 97.58L1221.11 97.56L1221.19 97.54L1221.27 97.52L1221.35 97.52L1221.43 97.51L1221.51 97.51L1221.6 97.52L1221.68 97.53L1221.77 97.54L1221.85 97.56L1221.94 97.58L1222.03 97.6L1222.12 97.63L1222.21 97.66L1222.3 97.7L1222.39 97.74L1222.49 97.79L1222.58 97.83L1222.67 97.88L1222.76 97.94L1222.86 97.99L1222.95 98.06L1223.13 98.18L1223.31 98.31L1223.47 98.44L1223.62 98.56L1223.77 98.7L1223.91 98.83L1224.04 98.96L1224.16 99.1L1224.27 99.23L1224.37 99.37L1224.46 99.51L1224.55 99.65L1224.63 99.79L1224.7 99.93L1224.77 100.07L1224.82 100.22L1224.87 100.36L1224.91 100.51L1224.95 100.65L1224.97 100.8L1224.99 100.95L1225 101.1L1225.01 101.25L1225.01 101.4L1225 101.55L1224.99 101.7L1224.97 101.85L1224.94 102L1224.91 102.16L1224.87 102.31L1224.83 102.46L1224.78 102.62L1224.73 102.77L1224.67 102.93L1224.6 103.08L1224.53 103.24L1224.45 103.39L1224.37 103.55L1224.29 103.7L1224.19 103.86L1224.07 104.07L1223.94 104.29L1223.8 104.5L1223.66 104.71L1223.52 104.91L1223.37 105.11L1223.22 105.31L1223.07 105.51L1222.91 105.71L1222.75 105.91L1222.59 106.1L1222.42 106.29L1222.26 106.48L1222.09 106.67L1221.91 106.86L1221.74 107.05L1221.57 107.24L1221.39 107.42L1221.21 107.61L1221.03 107.8L1220.86 107.98L1220.68 108.17L1220.5 108.36L1220.31 108.54L1220.13 108.73L1219.95 108.92L1219.77 109.11L1219.6 109.3L1219.42 109.49L1219.24 109.69L1219.06 109.88L1218.89 110.08L1218.72 110.28L1218.54 110.48L1218.37 110.68L1218.21 110.89L1218.04 111.09L1217.88 111.31L1217.72 111.52L1217.56 111.73L1217.11 112.36L1216.68 112.98L1216.27 113.59L1215.88 114.21L1215.52 114.83L1215.18 115.44L1214.87 116.05L1214.58 116.67L1214.31 117.28L1214.07 117.89L1213.84 118.5L1213.65 119.11L1213.47 119.71L1213.32 120.32L1213.19 120.93L1213.09 121.54L1213 122.14L1212.95 122.75L1212.91 123.36L1212.9 123.96L1212.91 124.57L1212.95 125.18L1213 125.78L1213.09 126.39L1213.19 127L1213.32 127.6L1213.47 128.21L1213.65 128.82L1213.84 129.43L1214.07 130.04L1214.31 130.65L1214.58 131.26L1214.87 131.87L1215.18 132.49L1215.52 133.1L1215.88 133.72L1216.27 134.33L1216.68 134.95L1217.11 135.57L1217.56 136.19L1217.89 136.66L1218.19 137.12L1218.47 137.59L1218.72 138.05L1218.94 138.52L1219.14 138.98L1219.32 139.44L1219.46 139.9L1219.58 140.35L1219.68 140.8L1219.75 141.25L1219.8 141.7L1219.82 142.14L1219.81 142.58L1219.78 143.01L1219.73 143.44L1219.65 143.86L1219.55 144.28L1219.42 144.7L1219.27 145.1L1219.1 145.5L1218.9 145.9L1218.67 146.29L1218.43 146.67L1218.16 147.04L1217.86 147.4L1217.55 147.76L1217.21 148.11L1216.84 148.45L1216.46 148.78L1216.05 149.1L1215.61 149.42L1215.16 149.72L1214.68 150.01L1214.18 150.29L1213.66 150.56L1213.11 150.82L1212.54 151.07L1211.96 151.3L1211.34 151.53L1211.03 151.65L1210.71 151.76L1210.39 151.86L1210.06 151.95L1209.73 152.04L1209.4 152.12L1209.07 152.2L1208.73 152.27L1208.4 152.34L1208.07 152.42L1207.74 152.49L1207.41 152.56L1207.09 152.64L1206.77 152.72L1206.46 152.8L1206.16 152.89L1205.86 152.99L1205.57 153.1L1205.29 153.22L1205.02 153.34L1204.76 153.48L1204.52 153.63L1204.28 153.8L1204.06 153.98L1203.86 154.17L1203.66 154.38L1203.49 154.62L1203.33 154.87L1203.19 155.14L1203.07 155.43L1202.96 155.75L1202.88 156.09L1202.82 156.46L1202.78 156.85L1202.76 157.27L1202.77 157.72L1202.8 158.2L1202.86 158.7L1202.94 159.24L1203.05 159.82L1203.13 160.26L1203.16 160.66L1203.15 161.01L1203.11 161.32L1203.04 161.6L1202.93 161.84L1202.79 162.04L1202.63 162.21L1202.44 162.36L1202.23 162.47L1201.99 162.57L1201.73 162.64L1201.46 162.69L1201.17 162.73L1200.87 162.75L1200.55 162.76L1200.23 162.76L1199.9 162.75L1199.56 162.74L1199.22 162.72L1198.88 162.71L1198.54 162.69L1198.2 162.68L1197.86 162.68L1197.53 162.69L1197.21 162.71L1196.9 162.75L1196.61 162.8L1196.32 162.87L1196.06 162.97L1195.81 163.08L1195.59 163.23L1195.38 163.4L1195.2 163.6L1195.05 163.84L1194.93 164.12L1194.84 164.43L1194.78 164.78L1194.75 165.18L1194.76 165.62L1194.81 165.8L1194.87 165.97L1194.95 166.14L1195.06 166.29L1195.18 166.43L1195.31 166.57L1195.46 166.71L1195.61 166.83L1195.78 166.95L1195.96 167.07L1196.14 167.19L1196.32 167.3L1196.51 167.41L1196.7 167.52L1196.89 167.63L1197.08 167.74L1197.26 167.86L1197.44 167.97L1197.61 168.09L1197.77 168.21L1197.92 168.34L1198.06 168.47L1198.18 168.61L1198.29 168.76L1198.37 168.91L1198.44 169.07L1198.49 169.24L1198.52 169.42L1198.52 169.62L1198.49 169.82L1198.44 170.03L1198.36 170.26L1198.24 170.51L1198.1 170.77L1197.92 171.04L1197.7 171.33L1197.44 171.64L1197.14 171.96L1196.8 172.31L1196.42 172.67L1196.24 172.83L1196.07 173.01L1195.92 173.2L1195.77 173.41L1195.63 173.62L1195.5 173.85L1195.38 174.1L1195.26 174.35L1195.15 174.61L1195.05 174.88L1194.95 175.16L1194.86 175.44L1194.76 175.73L1194.67 176.03L1194.59 176.33L1194.5 176.64L1194.41 176.95L1194.32 177.27L1194.23 177.58L1194.14 177.9L1194.05 178.22L1193.95 178.54L1193.85 178.86L1193.74 179.17L1193.62 179.49L1193.5 179.8L1193.37 180.11L1193.23 180.41L1193.08 180.71L1192.92 181L1192.76 181.29L1192.58 181.57L1192.38 181.84L1192.18 182.1L1191.96 182.35L1191.72 182.6L1191.47 182.83L1191.2 183.05L1190.92 183.25L1190.62 183.45L1190.59 183.48L1190.56 183.52L1190.53 183.57L1190.5 183.62L1190.47 183.67L1190.44 183.73L1190.41 183.8L1190.38 183.86L1190.35 183.94L1190.32 184.01L1190.29 184.09L1190.27 184.17L1190.24 184.25L1190.22 184.33L1190.2 184.42L1190.17 184.5L1190.15 184.59L1190.13 184.67L1190.12 184.76L1190.1 184.85L1190.09 184.93L1190.07 185.01L1190.06 185.1L1190.05 185.18L1190.04 185.26L1190.04 185.33L1190.03 185.4L1190.03 185.47L1190.03 185.54L1190.04 185.6L1190.04 185.66L1190.05 185.71L1190.06 185.76L1190.07 185.81L1190.09 185.84L1190.1 185.87L1190.12 185.9L1190.15 185.92L1190.17 185.93L1190.2 185.93L1191.15 186.46L1191.99 186.97L1192.73 187.48L1193.38 187.99L1193.94 188.48L1194.42 188.97L1194.81 189.46L1195.13 189.94L1195.37 190.41L1195.54 190.87L1195.65 191.34L1195.7 191.79L1195.69 192.25L1195.62 192.69L1195.51 193.14L1195.35 193.58L1195.15 194.02L1194.92 194.45L1194.65 194.88L1194.35 195.31L1194.03 195.74L1193.68 196.16L1193.32 196.58L1192.95 197.01L1192.57 197.43L1192.18 197.84L1191.8 198.26L1191.41 198.68L1191.04 199.1L1190.67 199.52L1190.32 199.93L1189.99 200.35L1189.69 200.77L1189.41 201.19L1189.16 201.61L1188.95 202.04L1188.78 202.46L1188.65 202.89L1188.57 203.32L1188.55 203.76L1188.55 203.82L1188.54 203.88L1188.54 203.95L1188.53 204.01L1188.53 204.08L1188.52 204.15L1188.51 204.22L1188.5 204.29L1188.48 204.36L1188.47 204.43L1188.45 204.5L1188.43 204.58L1188.42 204.65L1188.39 204.73L1188.37 204.81L1188.35 204.88L1188.32 204.96L1188.29 205.04L1188.27 205.13L1188.24 205.21L1188.2 205.29L1188.17 205.38L1188.14 205.46L1188.1 205.55L1188.06 205.64L1188.02 205.72L1187.98 205.81L1187.94 205.9L1187.89 206L1187.85 206.09L1187.8 206.18L1187.75 206.28L1187.7 206.37L1187.65 206.47L1187.59 206.57L1187.54 206.67L1187.48 206.77L1187.42 206.87L1187.36 206.97L1187.3 207.07L1187.54 207.56L1187.75 208.02L1187.93 208.46L1188.08 208.87L1188.21 209.26L1188.31 209.63L1188.39 209.98L1188.45 210.31L1188.48 210.61L1188.49 210.9L1188.48 211.17L1188.45 211.42L1188.4 211.65L1188.33 211.87L1188.24 212.06L1188.13 212.25L1188 212.41L1187.85 212.56L1187.69 212.7L1187.51 212.82L1187.32 212.93L1187.11 213.03L1186.88 213.12L1186.65 213.19L1186.4 213.25L1186.13 213.31L1185.86 213.35L1185.57 213.38L1185.28 213.41L1184.97 213.43L1184.66 213.44L1184.33 213.44L1184 213.44L1183.66 213.43L1183.31 213.42L1182.96 213.4L1182.6 213.37L1182.24 213.35L1181.87 213.32L1181.5 213.29L1181.03 213.28L1180.57 213.24L1180.12 213.18L1179.66 213.09L1179.22 212.98L1178.78 212.86L1178.34 212.71L1177.91 212.54L1177.49 212.36L1177.08 212.16L1176.68 211.94L1176.28 211.71L1175.9 211.47L1175.52 211.22L1175.16 210.95L1174.81 210.68L1174.47 210.4L1174.14 210.11L1173.82 209.81L1173.52 209.51L1173.23 209.2L1172.96 208.9L1172.7 208.59L1172.46 208.28L1172.23 207.97L1172.02 207.66L1171.83 207.36L1171.65 207.06L1171.49 206.76L1171.36 206.47L1171.24 206.19L1171.14 205.92L1171.06 205.65L1171.01 205.4L1170.97 205.16L1170.96 204.93L1170.97 204.72L1171 204.52L1171.06 204.34L1171.14 204.17L1171.55 203.24L1171.92 202.31L1172.25 201.39L1172.53 200.46L1172.78 199.54L1173 198.63L1173.17 197.71L1173.32 196.8L1173.43 195.89L1173.51 194.98L1173.57 194.07L1173.6 193.17L1173.6 192.27L1173.58 191.37L1173.53 190.47L1173.47 189.57L1173.39 188.67L1173.29 187.77L1173.18 186.88L1173.05 185.98L1172.92 185.09L1172.77 184.2L1172.61 183.31L1172.45 182.41L1172.28 181.52L1172.11 180.63L1171.94 179.74L1171.77 178.85L1171.6 177.96L1171.43 177.07L1171.27 176.17L1171.11 175.28L1170.96 174.39L1170.83 173.49L1170.7 172.6L1170.59 171.7L1170.49 170.81L1170.41 169.91L1170.35 169.01L1170.31 168.11L1170.28 167.55L1170.25 166.99L1170.22 166.42L1170.19 165.86L1170.16 165.29L1170.13 164.73L1170.1 164.16L1170.08 163.59L1170.05 163.02L1170.03 162.45L1170.01 161.88L1169.99 161.3L1169.97 160.73L1169.96 160.16L1169.95 159.58L1169.94 159.01L1169.94 158.43L1169.94 157.86L1169.94 157.28L1169.94 156.71L1169.95 156.13L1169.97 155.56L1169.99 154.98L1170.01 154.41L1170.04 153.84L1170.07 153.26L1170.11 152.69L1170.15 152.12L1170.2 151.54L1170.25 150.97L1170.31 150.4L1170.37 149.83L1170.45 149.26L1170.52 148.69L1170.61 148.13L1170.7 147.56L1170.8 147L1170.9 146.43L1171.02 145.87L1171.14 145.31L1171.22 144.84L1171.29 144.38L1171.34 143.92L1171.37 143.46L1171.39 143L1171.39 142.54L1171.38 142.08L1171.36 141.63L1171.32 141.17L1171.28 140.72L1171.22 140.27L1171.16 139.82L1171.09 139.37L1171.01 138.92L1170.92 138.47L1170.82 138.02L1170.73 137.58L1170.62 137.13L1170.52 136.69L1170.41 136.24L1170.3 135.8L1170.19 135.36L1170.08 134.92L1169.97 134.48L1169.87 134.04L1169.76 133.6L1169.66 133.16L1169.56 132.72L1169.47 132.28L1169.39 131.85L1169.31 131.41L1169.24 130.97L1169.18 130.54L1169.13 130.1L1169.09 129.66L1169.05 129.23L1169.04 128.79L1169.03 128.36L1169.04 127.92L1169.06 127.49L1169.1 126.71L1169.13 125.93L1169.17 125.16L1169.21 124.39L1169.26 123.62L1169.31 122.85L1169.37 122.08L1169.43 121.31L1169.49 120.55L1169.56 119.79L1169.63 119.02L1169.71 118.26L1169.79 117.5L1169.88 116.74L1169.97 115.98L1170.07 115.22L1170.17 114.47L1170.28 113.71L1170.39 112.96L1170.51 112.2L1170.64 111.45L1170.78 110.69L1170.92 109.94L1171.06 109.19L1171.22 108.44L1171.38 107.69L1171.55 106.94L1171.72 106.19L1171.9 105.44L1172.1 104.69L1172.29 103.95L1172.5 103.2L1172.71 102.45L1172.94 101.7L1173.17 100.96L1173.41 100.21L1173.65 99.47L1173.91 98.72L1174.18 97.97L1174.45 97.23L1174.61 96.83L1174.76 96.44L1174.91 96.06L1175.07 95.7L1175.22 95.34L1175.37 95L1175.53 94.67L1175.69 94.34L1175.85 94.03L1176.01 93.74L1176.17 93.45L1176.34 93.17L1176.51 92.91L1176.69 92.65L1176.87 92.41L1177.06 92.18L1177.25 91.96L1177.45 91.75L1177.66 91.56L1177.87 91.37L1178.09 91.2L1178.32 91.04L1178.56 90.89L1178.81 90.75L1179.07 90.62L1179.33 90.51L1179.61 90.41L1179.9 90.32L1180.2 90.24L1180.52 90.17L1180.84 90.12L1181.18 90.08L1181.53 90.05L1181.89 90.03L1182.27 90.02L1182.67 90.03L1183.08 90.05L1183.5 90.08L1183.94 90.12L1184.4 90.18L1185.11 90.07L1185.81 90L1186.49 89.96L1187.17 89.95L1187.83 89.97L1188.49 90.02Z" id="e3Jc6Mipuu"></path><path d="M1195.01 219.75L1197.31 220.81L1199.57 221.83L1201.81 222.83L1199.75 223.01L1197.57 222.56L1195.24 221.48L1192.79 219.77L1190.2 217.44L1192.65 218.63L1195.01 219.75Z" id="b3jMa18vMY"></path><path d="M182.1 115.17C182.13 115.17 182.3 115.17 182.6 115.17C213.26 115.17 230.29 115.17 233.7 115.17C235.72 115.17 237.24 116.69 237.24 118.71C237.24 120.73 235.72 122.25 233.7 122.25C230.5 122.25 214.48 122.25 185.64 122.25L185.64 161.71C210.83 161.71 224.83 161.71 227.63 161.71C229.65 161.71 231.17 163.23 231.17 165.25C231.17 167.28 229.65 168.79 227.63 168.79C224.83 168.79 210.83 168.79 185.64 168.79L185.64 208.26C214.48 208.26 230.5 208.26 233.7 208.26C235.72 208.26 237.24 209.77 237.24 211.8C237.24 213.82 235.72 215.34 233.7 215.34C230.29 215.34 213.26 215.34 182.6 215.34L182.1 215.34C181.79 215.34 181.63 215.34 181.59 215.34C180.07 215.34 178.56 213.82 178.56 211.8C178.56 205.59 178.56 174.56 178.56 118.71C179.57 116.35 180.75 115.17 182.1 115.17Z" id="elXDpx2w"></path><path d="M270.63 212.3C270.63 214.33 269.11 215.84 267.09 215.84C265.07 215.84 263.55 214.33 263.55 212.3C263.55 203.09 263.55 129.43 263.55 120.23C263.04 118.71 263.55 117.19 265.07 116.18C266.58 115.17 269.11 115.67 270.13 117.19C274.17 122.79 294.41 150.78 330.83 201.17C330.83 152.3 330.83 125.15 330.83 119.72C330.83 117.7 332.35 116.18 334.38 116.18C336.4 116.18 337.92 117.7 337.92 119.72C337.92 128.93 337.92 202.59 337.92 211.8C337.92 213.82 336.4 215.34 334.38 215.34C333.36 215.34 332.35 214.83 331.85 213.82C331.85 213.82 331.34 213.31 331.34 213.31C327.29 207.78 307.06 180.13 270.63 130.35C270.63 179.52 270.63 206.84 270.63 212.3Z" id="chuL0BX4r"></path><path d="M453.77 125.29C455.29 126.8 455.79 128.83 454.28 130.35C453.26 131.86 450.73 132.37 449.22 130.85C441.63 124.78 432.02 121.24 421.39 121.24C396.6 121.24 376.37 140.97 376.37 165.25C376.37 189.03 396.6 208.76 421.39 208.76C432.02 208.76 441.63 205.22 449.22 199.15C450.73 198.14 453.26 198.14 454.28 200.16C455.79 201.68 455.29 204.21 453.77 205.22C445.17 211.8 433.53 215.84 421.39 215.84C392.55 215.84 369.28 193.08 369.28 165.25C369.28 136.42 392.55 114.16 421.39 114.16C433.53 114.16 445.17 118.2 453.77 125.29Z" id="a15itqM9ui"></path><path d="M529.08 114.32L531.03 114.53L532.95 114.82L534.85 115.19L536.71 115.63L538.55 116.15L540.35 116.75L542.12 117.41L543.85 118.15L545.55 118.95L547.21 119.83L548.84 120.76L550.42 121.76L551.96 122.83L553.46 123.95L554.91 125.13L556.32 126.37L557.68 127.67L559 129.02L560.26 130.42L561.48 131.87L562.64 133.37L563.75 134.92L564.8 136.51L565.8 138.15L566.74 139.83L567.63 141.55L568.45 143.31L569.21 145.1L569.91 146.94L570.55 148.8L571.11 150.7L571.62 152.63L572.05 154.58L572.42 156.57L572.71 158.58L572.94 160.61L573.09 162.67L573.16 164.75L573.12 166.82L573.01 168.88L572.81 170.91L572.54 172.93L572.2 174.91L571.78 176.87L571.3 178.8L570.74 180.69L570.12 182.56L569.42 184.39L568.67 186.19L567.85 187.95L566.97 189.67L566.03 191.34L565.03 192.98L563.97 194.58L562.85 196.12L561.68 197.62L560.46 199.08L559.19 200.48L557.86 201.83L556.49 203.12L555.07 204.36L553.6 205.54L552.09 206.67L550.54 207.73L548.94 208.73L547.31 209.67L545.63 210.54L543.92 211.35L542.18 212.08L540.4 212.75L538.58 213.34L536.74 213.86L534.87 214.31L532.96 214.67L531.03 214.96L529.08 215.17L527.1 215.3L525.1 215.34L523.1 215.3L521.12 215.17L519.17 214.96L517.24 214.67L515.34 214.31L513.46 213.86L511.62 213.34L509.8 212.75L508.02 212.08L506.27 211.35L504.56 210.54L502.88 209.67L501.24 208.73L499.64 207.73L498.09 206.67L496.57 205.54L495.1 204.36L493.67 203.12L492.29 201.83L490.95 200.48L489.67 199.08L488.44 197.62L487.26 196.12L486.13 194.58L485.05 192.98L484.04 191.34L483.08 189.67L482.18 187.95L481.34 186.19L480.57 184.39L479.85 182.56L479.21 180.69L478.63 178.8L478.11 176.87L477.67 174.91L477.29 172.93L476.99 170.91L476.76 168.88L476.61 166.82L476.54 164.75L476.57 162.67L476.69 160.61L476.89 158.58L477.16 156.57L477.5 154.58L477.92 152.63L478.41 150.7L478.96 148.8L479.59 146.94L480.28 145.1L481.04 143.31L481.86 141.55L482.75 139.83L483.69 138.15L484.7 136.51L485.76 134.92L486.88 133.37L488.06 131.87L489.29 130.42L490.57 129.02L491.91 127.67L493.29 126.37L494.73 125.13L496.21 123.95L497.73 122.83L499.3 121.76L500.91 120.76L502.56 119.83L504.26 118.95L505.99 118.15L507.76 117.41L509.56 116.75L511.4 116.15L513.27 115.63L515.17 115.19L517.1 114.82L519.06 114.53L521.05 114.32L523.07 114.2L525.1 114.16L527.1 114.2L529.08 114.32ZM521.72 121.38L520.05 121.55L518.41 121.79L516.78 122.09L515.18 122.46L513.6 122.89L512.05 123.38L510.52 123.94L509.02 124.55L507.54 125.22L506.1 125.95L504.69 126.74L503.31 127.58L501.97 128.47L500.67 129.41L499.4 130.41L498.16 131.46L496.97 132.55L495.82 133.7L494.72 134.89L493.65 136.12L492.63 137.4L491.66 138.72L490.74 140.09L489.87 141.49L489.05 142.94L488.28 144.42L487.56 145.94L486.9 147.49L486.29 149.08L485.75 150.7L485.26 152.36L484.83 154.04L484.47 155.76L484.16 157.5L483.93 159.28L483.76 161.08L483.65 162.9L483.62 164.75L483.65 166.56L483.76 168.35L483.93 170.13L484.16 171.88L484.47 173.61L484.83 175.32L485.26 177L485.75 178.65L486.29 180.27L486.9 181.87L487.56 183.43L488.28 184.96L489.05 186.46L489.87 187.92L490.74 189.34L491.66 190.73L492.63 192.08L493.65 193.38L494.72 194.64L495.82 195.86L496.97 197.03L498.16 198.16L499.4 199.23L500.67 200.26L501.97 201.24L503.31 202.16L504.69 203.03L506.1 203.84L507.54 204.6L509.02 205.3L510.52 205.94L512.05 206.51L513.6 207.03L515.18 207.48L516.78 207.87L518.41 208.18L520.05 208.43L521.72 208.61L523.4 208.72L525.1 208.76L526.76 208.73L528.41 208.62L530.04 208.44L531.65 208.2L533.23 207.89L534.8 207.51L536.34 207.07L537.86 206.56L539.36 206L540.83 205.37L542.26 204.68L543.67 203.94L545.05 203.14L546.4 202.28L547.72 201.37L549 200.41L550.24 199.39L551.45 198.33L552.62 197.21L553.75 196.05L554.84 194.84L555.89 193.59L556.89 192.29L557.85 190.95L558.76 189.57L559.63 188.15L560.45 186.68L561.21 185.19L561.93 183.65L562.59 182.08L563.21 180.48L563.76 178.84L564.26 177.18L564.7 175.48L565.09 173.76L565.41 172L565.67 170.23L565.87 168.42L566.01 166.6L566.08 164.75L566.05 162.9L565.94 161.08L565.77 159.28L565.53 157.5L565.23 155.76L564.87 154.04L564.44 152.36L563.96 150.7L563.41 149.08L562.81 147.49L562.15 145.94L561.44 144.42L560.67 142.94L559.85 141.49L558.98 140.09L558.07 138.72L557.1 137.4L556.09 136.12L555.04 134.89L553.94 133.7L552.8 132.55L551.62 131.46L550.4 130.41L549.14 129.41L547.85 128.47L546.52 127.58L545.16 126.74L543.77 125.95L542.35 125.22L540.9 124.55L539.42 123.94L537.91 123.38L536.38 122.89L534.83 122.46L533.25 122.09L531.66 121.79L530.04 121.55L528.41 121.38L526.77 121.27L525.1 121.24L523.4 121.27L521.72 121.38Z" id="b34k3L2Cvx"></path><path d="M606.05 212.3C606.05 214.33 604.53 215.84 602.51 215.84C600.48 215.84 598.96 214.33 598.96 212.3C598.96 203.09 598.96 129.43 598.96 120.23C598.46 118.71 598.96 117.19 600.48 116.18C602 115.17 604.53 115.67 605.54 117.19C609.59 122.79 629.83 150.78 666.25 201.17C666.25 152.3 666.25 125.15 666.25 119.72C666.25 117.7 667.77 116.18 669.79 116.18C671.82 116.18 673.33 117.7 673.33 119.72C673.33 128.93 673.33 202.59 673.33 211.8C673.33 213.82 671.82 215.34 669.79 215.34C668.78 215.34 667.77 214.83 667.26 213.82C667.26 213.82 666.76 213.31 666.76 213.31C662.71 207.78 642.47 180.13 606.05 130.35C606.05 179.52 606.05 206.84 606.05 212.3Z" id="cwTVBroR"></path><path d="M733.54 122.25C715.32 122.25 705.21 122.25 703.18 122.25C701.16 122.25 699.64 120.73 699.64 118.71C699.64 116.69 701.16 115.17 703.18 115.17C709.91 115.17 763.74 115.17 770.47 115.17C772.49 115.17 774.01 116.69 774.01 118.71C774.01 120.73 772.49 122.25 770.47 122.25C768.44 122.25 758.33 122.25 740.11 122.25C740.11 175.98 740.11 205.83 740.11 211.8C740.11 213.82 738.6 215.34 736.57 215.34C734.55 215.34 733.03 213.82 733.03 211.8C733.03 205.83 733.03 175.98 733.03 122.25L733.54 122.25Z" id="c7lDaI08eF"></path><path d="M833 115.26L834.14 115.38L835.27 115.54L836.39 115.74L837.49 115.99L838.57 116.28L839.64 116.61L840.69 116.99L841.71 117.4L842.72 117.85L843.71 118.34L844.67 118.86L845.61 119.43L846.53 120.02L847.42 120.66L848.28 121.32L849.12 122.02L849.93 122.75L850.72 123.52L851.47 124.31L852.19 125.13L852.89 125.98L853.55 126.86L854.17 127.77L854.77 128.7L855.32 129.66L855.85 130.64L856.33 131.64L856.78 132.67L857.19 133.72L857.56 134.79L857.89 135.88L858.18 136.99L858.43 138.12L858.63 139.26L858.79 140.43L858.91 141.6L858.98 142.8L859 144L858.99 144.87L858.95 145.73L858.89 146.59L858.81 147.43L858.7 148.27L858.57 149.09L858.41 149.91L858.24 150.72L858.04 151.52L857.82 152.3L857.57 153.08L857.31 153.85L857.02 154.6L856.71 155.35L856.39 156.08L856.04 156.8L855.67 157.51L855.28 158.21L854.87 158.89L854.45 159.56L854 160.22L853.54 160.86L853.05 161.49L852.55 162.11L852.04 162.71L851.5 163.3L850.95 163.87L850.37 164.42L849.79 164.97L849.18 165.49L848.56 166L847.93 166.49L847.28 166.97L846.61 167.43L845.93 167.87L845.23 168.29L844.52 168.7L843.8 169.09L843.06 169.46L842.31 169.81L842.34 169.84L842.38 169.88L842.42 169.91L842.46 169.94L842.5 169.97L842.53 170L842.57 170.03L842.61 170.05L842.65 170.08L842.69 170.1L842.72 170.12L842.76 170.14L842.8 170.16L842.84 170.17L842.88 170.19L842.91 170.2L842.95 170.22L842.99 170.23L843.03 170.24L843.07 170.25L843.1 170.26L843.14 170.27L843.18 170.27L843.22 170.28L843.25 170.29L843.29 170.29L843.33 170.29L843.37 170.3L843.41 170.3L843.44 170.3L843.48 170.31L843.52 170.31L843.56 170.31L843.6 170.31L843.63 170.31L843.67 170.31L843.71 170.31L843.75 170.31L843.79 170.31L843.82 170.31L844.32 170.59L844.81 170.87L845.31 171.18L845.8 171.5L846.3 171.83L846.79 172.18L847.28 172.54L847.77 172.92L848.25 173.31L848.73 173.72L849.21 174.14L849.67 174.58L850.14 175.03L850.59 175.5L851.04 175.98L851.47 176.47L851.9 176.98L852.32 177.51L852.73 178.04L853.12 178.6L853.5 179.16L853.87 179.74L854.23 180.34L854.57 180.95L854.9 181.57L855.21 182.21L855.5 182.86L855.78 183.52L856.03 184.2L856.27 184.9L856.49 185.6L856.69 186.32L856.87 187.06L857.03 187.8L857.17 188.57L857.28 189.34L857.37 190.13L857.43 190.93L857.47 191.74L857.48 192.57L857.48 193.02L857.49 193.46L857.49 193.9L857.5 194.32L857.51 194.73L857.52 195.14L857.53 195.53L857.54 195.92L857.56 196.3L857.58 196.67L857.6 197.03L857.62 197.38L857.64 197.72L857.67 198.06L857.7 198.39L857.73 198.71L857.76 199.02L857.79 199.32L857.83 199.62L857.86 199.91L857.9 200.19L857.94 200.46L857.99 200.73L858.03 200.99L858.08 201.24L858.12 201.48L858.18 201.72L858.23 201.95L858.28 202.17L858.34 202.39L858.4 202.6L858.45 202.8L858.52 203L858.58 203.19L858.65 203.38L858.71 203.55L858.78 203.73L858.85 203.89L858.93 204.05L859 204.21L859.04 204.32L859.08 204.43L859.12 204.54L859.17 204.65L859.21 204.75L859.26 204.85L859.31 204.96L859.35 205.05L859.4 205.15L859.45 205.24L859.5 205.33L859.55 205.42L859.6 205.51L859.65 205.59L859.7 205.68L859.75 205.75L859.8 205.83L859.85 205.9L859.9 205.97L859.95 206.04L860 206.11L860.04 206.17L860.09 206.23L860.13 206.28L860.17 206.34L860.21 206.39L860.25 206.43L860.29 206.48L860.32 206.52L860.35 206.56L860.38 206.59L860.41 206.62L860.43 206.65L860.46 206.67L860.47 206.69L860.49 206.71L860.5 206.72L860.51 206.73L860.52 206.74L860.63 206.74L860.75 206.74L860.87 206.75L860.99 206.75L861.11 206.76L861.23 206.77L861.35 206.79L861.47 206.81L861.6 206.83L861.72 206.85L861.84 206.87L861.97 206.9L862.09 206.93L862.21 206.97L862.33 207L862.45 207.04L862.57 207.09L862.69 207.14L862.81 207.19L862.92 207.24L863.03 207.3L863.15 207.36L863.25 207.43L863.36 207.5L863.46 207.58L863.56 207.66L863.66 207.74L863.76 207.83L863.85 207.92L863.93 208.02L864.02 208.12L864.1 208.23L864.17 208.34L864.24 208.46L864.31 208.58L864.37 208.7L864.43 208.84L864.48 208.97L864.53 209.12L864.57 209.27L864.6 209.42L864.63 209.57L864.65 209.72L864.67 209.87L864.69 210.02L864.69 210.17L864.7 210.32L864.69 210.47L864.68 210.62L864.67 210.76L864.65 210.9L864.63 211.05L864.6 211.19L864.56 211.33L864.52 211.46L864.48 211.6L864.43 211.73L864.37 211.86L864.31 211.99L864.25 212.11L864.18 212.23L864.11 212.35L864.03 212.47L863.95 212.58L863.86 212.69L863.77 212.8L863.67 212.9L863.57 213L863.47 213.09L863.36 213.18L863.24 213.27L863.13 213.35L863 213.42L862.88 213.5L862.75 213.56L862.61 213.62L862.47 213.68L862.33 213.73L862.19 213.78L862.04 213.82L860.01 213.82L859.86 213.82L859.7 213.81L859.54 213.79L859.38 213.77L859.21 213.75L859.04 213.72L858.87 213.68L858.7 213.64L858.52 213.59L858.35 213.54L858.17 213.48L857.99 213.41L857.81 213.34L857.62 213.26L857.44 213.18L857.26 213.09L857.08 213L856.9 212.9L856.72 212.79L856.53 212.68L856.36 212.57L856.18 212.44L856 212.31L855.82 212.18L855.65 212.04L855.48 211.9L855.31 211.75L855.14 211.59L854.98 211.43L854.82 211.26L854.66 211.09L854.51 210.91L854.36 210.72L854.21 210.53L854.07 210.33L853.93 210.13L853.8 209.92L853.68 209.71L853.55 209.49L853.44 209.27L853.29 209.04L853.14 208.8L853 208.55L852.86 208.29L852.72 208.03L852.59 207.76L852.47 207.48L852.34 207.19L852.22 206.9L852.11 206.6L852 206.28L851.89 205.96L851.78 205.63L851.68 205.29L851.59 204.94L851.49 204.59L851.4 204.22L851.32 203.85L851.24 203.46L851.16 203.07L851.09 202.67L851.02 202.25L850.95 201.83L850.89 201.4L850.83 200.96L850.77 200.5L850.72 200.04L850.67 199.57L850.63 199.09L850.59 198.6L850.55 198.09L850.52 197.58L850.49 197.05L850.47 196.52L850.45 195.97L850.43 195.42L850.42 194.85L850.41 194.27L850.4 193.68L850.4 193.08L850.39 192.55L850.37 192.03L850.34 191.53L850.3 191.03L850.24 190.54L850.17 190.06L850.09 189.58L850 189.12L849.89 188.66L849.78 188.22L849.65 187.78L849.51 187.35L849.37 186.92L849.21 186.51L849.04 186.1L848.86 185.7L848.68 185.3L848.48 184.91L848.27 184.53L848.06 184.16L847.84 183.79L847.61 183.43L847.37 183.08L847.12 182.73L846.87 182.39L846.61 182.06L846.34 181.73L846.06 181.4L845.78 181.08L845.49 180.77L845.2 180.46L844.9 180.16L844.59 179.86L844.28 179.57L843.96 179.28L843.64 178.99L843.31 178.72L842.98 178.44L842.65 178.17L842.31 177.9L841.96 177.68L841.62 177.46L841.27 177.24L840.93 177.04L840.58 176.83L840.24 176.64L839.89 176.44L839.54 176.26L839.2 176.08L838.85 175.9L838.51 175.73L838.17 175.56L837.83 175.4L837.49 175.25L837.16 175.1L836.83 174.95L836.5 174.81L836.17 174.68L835.86 174.55L835.54 174.42L835.23 174.3L834.92 174.19L834.62 174.07L834.33 173.97L834.04 173.86L833.76 173.77L833.48 173.67L833.22 173.58L832.95 173.5L832.7 173.42L832.46 173.34L832.22 173.27L831.99 173.2L831.77 173.14L831.56 173.08L831.37 173.02L831.18 172.97L831 172.93L830.83 172.88L830.67 172.84L830.63 172.84L830.6 172.84L830.56 172.83L830.53 172.83L830.5 172.82L830.48 172.81L830.45 172.8L830.42 172.79L830.4 172.78L830.38 172.76L830.36 172.75L830.34 172.73L830.32 172.72L830.3 172.7L830.29 172.68L830.27 172.66L830.26 172.65L830.25 172.63L830.24 172.61L830.23 172.59L830.22 172.57L830.21 172.55L830.2 172.53L830.2 172.51L830.19 172.5L830.19 172.48L830.18 172.46L830.18 172.44L830.18 172.43L830.17 172.41L830.17 172.4L830.17 172.39L830.17 172.38L830.17 172.37L830.17 172.36L830.16 172.34L830.16 172.34L805.88 172.34L805.88 211.8L805.88 211.95L805.87 212.1L805.86 212.24L805.84 212.39L805.81 212.53L805.78 212.67L805.75 212.81L805.71 212.94L805.66 213.07L805.61 213.2L805.56 213.33L805.5 213.45L805.43 213.57L805.37 213.69L805.29 213.81L805.22 213.92L805.14 214.02L805.05 214.13L804.96 214.23L804.87 214.33L804.77 214.42L804.67 214.51L804.57 214.59L804.46 214.67L804.35 214.75L804.24 214.82L804.12 214.89L804 214.96L803.87 215.01L803.75 215.07L803.62 215.12L803.49 215.16L803.35 215.2L803.21 215.24L803.07 215.27L802.93 215.29L802.79 215.31L802.64 215.33L802.49 215.33L802.34 215.34L802.19 215.33L802.04 215.33L801.89 215.31L801.75 215.29L801.61 215.27L801.47 215.24L801.33 215.2L801.19 215.16L801.06 215.12L800.93 215.07L800.81 215.01L800.68 214.96L800.56 214.89L800.44 214.82L800.33 214.75L800.22 214.67L800.11 214.59L800.01 214.51L799.91 214.42L799.81 214.33L799.72 214.23L799.63 214.13L799.54 214.02L799.46 213.92L799.39 213.81L799.31 213.69L799.24 213.57L799.18 213.45L799.12 213.33L799.07 213.2L799.02 213.07L798.97 212.94L798.93 212.81L798.9 212.67L798.87 212.53L798.84 212.39L798.82 212.24L798.81 212.1L798.8 211.95L798.8 211.8L798.8 118.71L798.8 118.6L798.81 118.48L798.82 118.37L798.84 118.26L798.87 118.14L798.9 118.03L798.93 117.92L798.97 117.81L799.01 117.7L799.06 117.59L799.11 117.48L799.17 117.37L799.23 117.26L799.29 117.16L799.36 117.06L799.43 116.95L799.5 116.85L799.58 116.75L799.66 116.66L799.75 116.56L799.83 116.47L799.92 116.37L800.02 116.28L800.11 116.2L800.21 116.11L800.31 116.03L800.41 115.95L800.51 115.87L800.61 115.79L800.72 115.72L800.83 115.65L800.94 115.59L801.05 115.52L801.16 115.46L801.27 115.4L801.38 115.35L801.49 115.3L801.61 115.25L801.72 115.21L801.83 115.17L830.67 115.17L831.84 115.19L833 115.26ZM805.38 165.25L831.18 165.25L832.26 165.18L833.33 165.05L834.39 164.88L835.43 164.65L836.45 164.38L837.46 164.05L838.44 163.69L839.41 163.28L840.35 162.82L841.26 162.33L842.15 161.79L843.01 161.22L843.85 160.6L844.65 159.95L845.42 159.27L846.16 158.55L846.87 157.8L847.54 157.02L848.17 156.2L848.77 155.36L849.33 154.49L849.84 153.6L850.31 152.68L850.74 151.74L851.12 150.77L851.46 149.78L851.75 148.78L851.99 147.75L852.18 146.71L852.31 145.66L852.4 144.58L852.42 143.5L852.35 142.41L852.22 141.34L852.04 140.29L851.8 139.25L851.51 138.22L851.18 137.22L850.8 136.23L850.37 135.27L849.9 134.33L849.38 133.41L848.82 132.53L848.23 131.66L847.59 130.83L846.92 130.02L846.21 129.25L845.47 128.51L844.69 127.81L843.89 127.13L843.05 126.5L842.19 125.91L841.3 125.35L840.38 124.84L839.44 124.36L838.48 123.93L837.5 123.55L836.5 123.21L835.48 122.93L834.44 122.69L833.39 122.5L832.33 122.36L831.25 122.28L830.16 122.25L805.38 122.25L805.38 165.25Z" id="d28ETsmwJR"></path><path d="M927.75 115.69L927.97 115.7L928.19 115.72L928.41 115.75L928.63 115.78L928.84 115.81L929.06 115.86L929.27 115.9L929.47 115.96L929.68 116.02L929.88 116.08L930.08 116.15L930.28 116.23L930.47 116.31L930.67 116.4L930.86 116.5L931.04 116.6L931.23 116.7L931.41 116.81L931.59 116.93L931.76 117.05L931.94 117.18L932.11 117.31L932.27 117.45L932.44 117.6L932.6 117.75L932.76 117.91L932.91 118.07L933.06 118.24L933.21 118.41L933.35 118.59L933.49 118.77L933.63 118.96L933.77 119.16L933.9 119.36L934.02 119.57L934.15 119.78L934.27 120L934.38 120.23L976.37 204.71L976.59 204.98L976.79 205.26L976.98 205.53L977.15 205.82L977.3 206.1L977.44 206.39L977.56 206.69L977.66 206.98L977.75 207.28L977.83 207.58L977.89 207.88L977.93 208.19L977.96 208.49L977.97 208.79L977.97 209.1L977.96 209.4L977.93 209.7L977.89 210L977.83 210.3L977.76 210.59L977.68 210.89L977.58 211.18L977.48 211.46L977.36 211.74L977.22 212.02L977.08 212.29L976.92 212.56L976.75 212.82L976.57 213.07L976.37 213.32L976.17 213.56L975.95 213.8L975.72 214.02L975.49 214.24L975.24 214.45L974.98 214.64L974.71 214.83L974.43 215.01L974.14 215.18L973.84 215.34L973.54 215.48L973.23 215.61L972.92 215.73L972.62 215.84L972.31 215.93L972 216.01L971.69 216.08L971.38 216.14L971.07 216.18L970.76 216.21L970.45 216.22L970.15 216.23L969.84 216.22L969.54 216.2L969.24 216.17L968.94 216.13L968.64 216.08L968.35 216.01L968.06 215.93L967.77 215.84L967.49 215.74L967.21 215.63L966.94 215.51L966.67 215.37L966.4 215.23L966.14 215.07L965.89 214.91L965.64 214.73L965.4 214.54L965.16 214.34L964.93 214.13L964.71 213.91L964.5 213.68L964.29 213.44L964.09 213.19L963.9 212.93L963.71 212.66L963.54 212.38L963.37 212.1L963.22 211.8L952.59 191.05L905.54 191.05L895.93 211.8L895.82 212.02L895.7 212.24L895.57 212.45L895.45 212.66L895.32 212.86L895.18 213.06L895.05 213.25L894.9 213.44L894.76 213.61L894.61 213.79L894.46 213.96L894.31 214.12L894.15 214.28L893.99 214.43L893.82 214.57L893.66 214.71L893.49 214.84L893.31 214.97L893.14 215.09L892.96 215.21L892.78 215.32L892.59 215.43L892.41 215.53L892.22 215.62L892.02 215.71L891.83 215.79L891.63 215.87L891.43 215.94L891.23 216.01L891.02 216.07L890.82 216.12L890.61 216.17L890.39 216.21L890.18 216.25L889.96 216.28L889.74 216.3L889.52 216.32L889.3 216.34L889.08 216.35L888.85 216.35L888.77 216.35L888.69 216.35L888.61 216.34L888.53 216.33L888.45 216.33L888.36 216.32L888.28 216.31L888.19 216.29L888.1 216.28L888.01 216.26L887.92 216.25L887.83 216.23L887.74 216.21L887.64 216.19L887.55 216.16L887.46 216.14L887.36 216.11L887.27 216.09L887.17 216.06L887.08 216.03L886.98 216L886.89 215.97L886.79 215.94L886.7 215.91L886.61 215.88L886.51 215.85L886.42 215.81L886.33 215.78L886.24 215.74L886.15 215.71L886.06 215.67L885.97 215.64L885.88 215.6L885.79 215.56L885.71 215.53L885.63 215.49L885.54 215.45L885.46 215.41L885.39 215.38L885.31 215.34L885.01 215.18L884.72 215.02L884.44 214.84L884.17 214.66L883.91 214.47L883.66 214.27L883.42 214.06L883.19 213.84L882.97 213.62L882.76 213.39L882.55 213.16L882.36 212.92L882.18 212.67L882.01 212.41L881.85 212.15L881.7 211.89L881.56 211.62L881.43 211.35L881.31 211.07L881.2 210.78L881.1 210.5L881.01 210.21L880.93 209.92L880.86 209.62L880.81 209.32L880.76 209.02L880.73 208.72L880.7 208.41L880.69 208.1L880.68 207.8L880.69 207.49L880.71 207.18L880.74 206.87L880.78 206.56L880.83 206.25L880.9 205.94L880.97 205.63L881.06 205.32L881.15 205.02L881.26 204.71L920.22 120.23L920.33 120L920.45 119.78L920.57 119.57L920.7 119.36L920.83 119.16L920.97 118.96L921.1 118.77L921.24 118.59L921.39 118.41L921.54 118.24L921.69 118.07L921.84 117.91L922 117.75L922.16 117.6L922.32 117.45L922.49 117.31L922.66 117.18L922.83 117.05L923.01 116.93L923.19 116.81L923.37 116.7L923.55 116.6L923.74 116.5L923.93 116.4L924.12 116.31L924.32 116.23L924.52 116.15L924.72 116.08L924.92 116.02L925.12 115.96L925.33 115.9L925.54 115.86L925.75 115.81L925.97 115.78L926.19 115.75L926.4 115.72L926.62 115.7L926.85 115.69L927.07 115.68L927.3 115.67L927.53 115.68L927.75 115.69ZM945.01 174.87L928.82 141.98L913.64 174.87L945.01 174.87Z" id="d1QWDzrbCY"></path><path d="M1029.87 113.76L1031.06 113.88L1032.22 114.06L1033.38 114.29L1034.51 114.57L1035.63 114.89L1036.74 115.26L1037.82 115.67L1038.88 116.12L1039.93 116.62L1040.95 117.16L1041.94 117.74L1042.92 118.36L1043.87 119.01L1044.79 119.71L1045.69 120.43L1046.56 121.2L1047.4 121.99L1048.21 122.82L1048.99 123.68L1049.74 124.57L1050.46 125.49L1051.14 126.44L1051.8 127.41L1052.41 128.41L1052.99 129.43L1053.53 130.48L1054.04 131.55L1054.5 132.65L1054.93 133.76L1055.31 134.89L1055.66 136.04L1055.96 137.21L1056.21 138.39L1056.43 139.59L1056.59 140.8L1056.71 142.03L1056.79 143.26L1056.81 144.51L1056.8 145.38L1056.75 146.24L1056.68 147.1L1056.59 147.95L1056.46 148.8L1056.31 149.63L1056.14 150.46L1055.94 151.28L1055.71 152.09L1055.46 152.89L1055.18 153.68L1054.88 154.46L1054.56 155.24L1054.22 156L1053.85 156.75L1053.46 157.49L1053.05 158.21L1052.62 158.93L1052.16 159.63L1051.69 160.32L1051.2 161L1050.68 161.66L1050.15 162.31L1049.6 162.94L1049.03 163.56L1048.44 164.17L1047.84 164.75L1047.22 165.33L1046.58 165.88L1045.93 166.42L1045.26 166.95L1044.57 167.45L1043.87 167.94L1043.16 168.41L1042.43 168.86L1041.69 169.29L1040.94 169.7L1040.17 170.09L1039.39 170.47L1038.6 170.82L1055.8 203.7L1055.98 204.01L1056.15 204.32L1056.3 204.63L1056.44 204.94L1056.56 205.26L1056.67 205.58L1056.77 205.9L1056.85 206.22L1056.91 206.54L1056.97 206.86L1057.01 207.19L1057.04 207.51L1057.05 207.83L1057.05 208.15L1057.04 208.47L1057.02 208.79L1056.99 209.1L1056.94 209.41L1056.88 209.72L1056.81 210.03L1056.73 210.33L1056.64 210.62L1056.53 210.92L1056.42 211.21L1056.29 211.49L1056.16 211.77L1056.01 212.04L1055.86 212.3L1055.69 212.56L1055.51 212.81L1055.33 213.05L1055.14 213.29L1054.93 213.51L1054.72 213.73L1054.5 213.94L1054.27 214.14L1054.03 214.33L1053.79 214.51L1053.53 214.67L1053.27 214.83L1053.19 214.87L1053.11 214.91L1053.03 214.95L1052.95 214.98L1052.87 215.02L1052.78 215.06L1052.7 215.09L1052.61 215.13L1052.52 215.17L1052.43 215.2L1052.34 215.24L1052.25 215.27L1052.16 215.31L1052.06 215.34L1051.97 215.37L1051.88 215.41L1051.78 215.44L1051.69 215.47L1051.59 215.5L1051.5 215.53L1051.4 215.56L1051.31 215.58L1051.21 215.61L1051.12 215.63L1051.03 215.66L1050.93 215.68L1050.84 215.7L1050.75 215.72L1050.66 215.74L1050.57 215.76L1050.48 215.77L1050.39 215.79L1050.3 215.8L1050.21 215.81L1050.13 215.82L1050.05 215.83L1049.96 215.84L1049.88 215.84L1049.81 215.84L1049.73 215.84L1049.5 215.84L1049.28 215.83L1049.05 215.82L1048.83 215.8L1048.61 215.77L1048.4 215.74L1048.18 215.71L1047.97 215.67L1047.76 215.62L1047.55 215.57L1047.35 215.51L1047.15 215.45L1046.95 215.38L1046.75 215.31L1046.55 215.23L1046.36 215.15L1046.17 215.06L1045.98 214.97L1045.8 214.87L1045.62 214.77L1045.44 214.66L1045.26 214.55L1045.09 214.43L1044.92 214.31L1044.75 214.19L1044.59 214.06L1044.43 213.92L1044.27 213.79L1044.12 213.64L1043.97 213.5L1043.82 213.34L1043.67 213.19L1043.53 213.03L1043.4 212.86L1043.26 212.7L1043.13 212.52L1043 212.35L1042.88 212.17L1042.76 211.98L1042.65 211.8L1022.92 174.36L1005.71 174.36L1005.71 208.26L1005.71 208.59L1005.69 208.93L1005.66 209.26L1005.61 209.59L1005.55 209.91L1005.48 210.23L1005.4 210.54L1005.31 210.85L1005.21 211.15L1005.09 211.44L1004.96 211.73L1004.83 212.01L1004.68 212.29L1004.52 212.56L1004.35 212.82L1004.18 213.07L1003.99 213.32L1003.79 213.56L1003.59 213.79L1003.37 214.01L1003.15 214.22L1002.92 214.43L1002.68 214.62L1002.44 214.81L1002.18 214.99L1001.92 215.16L1001.65 215.31L1001.38 215.46L1001.09 215.6L1000.81 215.73L1000.51 215.84L1000.21 215.94L999.9 216.04L999.59 216.12L999.27 216.19L998.95 216.25L998.63 216.29L998.29 216.32L997.96 216.34L997.62 216.35L997.28 216.34L996.94 216.32L996.61 216.29L996.29 216.25L995.96 216.19L995.65 216.12L995.34 216.04L995.03 215.94L994.73 215.84L994.43 215.73L994.15 215.6L993.86 215.46L993.59 215.31L993.32 215.16L993.06 214.99L992.8 214.81L992.56 214.62L992.32 214.43L992.09 214.22L991.87 214.01L991.65 213.79L991.45 213.56L991.25 213.32L991.06 213.07L990.89 212.82L990.72 212.56L990.56 212.29L990.41 212.01L990.28 211.73L990.15 211.44L990.03 211.15L989.93 210.85L989.84 210.54L989.76 210.23L989.69 209.91L989.63 209.59L989.58 209.26L989.55 208.93L989.53 208.59L989.53 208.26L989.53 122.76L989.53 122.45L989.55 122.15L989.58 121.86L989.63 121.56L989.69 121.27L989.75 120.98L989.83 120.69L989.93 120.41L990.03 120.13L990.14 119.86L990.27 119.59L990.4 119.32L990.54 119.06L990.7 118.8L990.86 118.55L991.03 118.3L991.21 118.06L991.4 117.83L991.6 117.6L991.8 117.38L992.01 117.17L992.23 116.96L992.46 116.76L992.69 116.56L992.93 116.38L993.18 116.2L993.43 116.03L993.69 115.87L993.95 115.72L994.22 115.57L994.49 115.44L994.77 115.31L995.05 115.19L995.34 115.09L995.63 114.99L995.92 114.9L996.21 114.83L996.51 114.76L996.81 114.71L997.11 114.66L997.11 113.65L1027.47 113.65L1028.68 113.68L1029.87 113.76ZM1005.71 158.17L1026.96 158.17L1027.95 158.14L1028.93 158.04L1029.89 157.87L1030.84 157.64L1031.77 157.36L1032.68 157.01L1033.57 156.61L1034.42 156.16L1035.24 155.65L1036.03 155.1L1036.78 154.5L1037.49 153.86L1038.16 153.17L1038.77 152.45L1039.34 151.69L1039.85 150.89L1040.3 150.06L1040.7 149.2L1041.03 148.31L1041.29 147.39L1041.48 146.45L1041.59 145.49L1041.63 144.51L1041.6 143.46L1041.49 142.44L1041.31 141.43L1041.07 140.45L1040.76 139.5L1040.4 138.58L1039.98 137.68L1039.5 136.83L1038.98 136.01L1038.4 135.23L1037.78 134.49L1037.13 133.8L1036.43 133.15L1035.69 132.56L1034.93 132.01L1034.13 131.52L1033.31 131.09L1032.46 130.72L1031.59 130.41L1030.71 130.16L1029.81 129.99L1028.89 129.88L1027.97 129.84L1005.71 129.84L1005.71 158.17Z" id="aPu3lbF33"></path></defs><g><g><g><use xlink:href="#b3ME7leYtm" opacity="1" fill="url(#gradientbc3tSiiq9)"></use><g><use xlink:href="#b3ME7leYtm" opacity="1" fill-opacity="0" stroke="#000000" stroke-width="1" stroke-opacity="0"></use></g></g><g><use xlink:href="#e3Jc6Mipuu" opacity="1" fill="#ffffff" fill-opacity="1"></use><g><use xlink:href="#e3Jc6Mipuu" opacity="1" fill-opacity="0" stroke="#000000" stroke-width="1" stroke-opacity="0"></use></g></g><g><use xlink:href="#b3jMa18vMY" opacity="1" fill="#ffffff" fill-opacity="1"></use><g><use xlink:href="#b3jMa18vMY" opacity="1" fill-opacity="0" stroke="#000000" stroke-width="1" stroke-opacity="0"></use></g></g></g><g><g><use xlink:href="#elXDpx2w" opacity="1" fill="#ffffff" fill-opacity="1"></use><g><use xlink:href="#elXDpx2w" opacity="1" fill-opacity="0" stroke="#000000" stroke-width="1" stroke-opacity="0"></use></g></g><g><use xlink:href="#chuL0BX4r" opacity="1" fill="#ffffff" fill-opacity="1"></use><g><use xlink:href="#chuL0BX4r" opacity="1" fill-opacity="0" stroke="#000000" stroke-width="1" stroke-opacity="0"></use></g></g><g><use xlink:href="#a15itqM9ui" opacity="1" fill="#ffffff" fill-opacity="1"></use><g><use xlink:href="#a15itqM9ui" opacity="1" fill-opacity="0" stroke="#000000" stroke-width="1" stroke-opacity="0"></use></g></g><g><use xlink:href="#b34k3L2Cvx" opacity="1" fill="#ffffff" fill-opacity="1"></use><g><use xlink:href="#b34k3L2Cvx" opacity="1" fill-opacity="0" stroke="#000000" stroke-width="1" stroke-opacity="0"></use></g></g><g><use xlink:href="#cwTVBroR" opacity="1" fill="#ffffff" fill-opacity="1"></use><g><use xlink:href="#cwTVBroR" opacity="1" fill-opacity="0" stroke="#000000" stroke-width="1" stroke-opacity="0"></use></g></g><g><use xlink:href="#c7lDaI08eF" opacity="1" fill="#ffffff" fill-opacity="1"></use><g><use xlink:href="#c7lDaI08eF" opacity="1" fill-opacity="0" stroke="#000000" stroke-width="1" stroke-opacity="0"></use></g></g><g><use xlink:href="#d28ETsmwJR" opacity="1" fill="#ffffff" fill-opacity="1"></use><g><use xlink:href="#d28ETsmwJR" opacity="1" fill-opacity="0" stroke="#000000" stroke-width="1" stroke-opacity="0"></use></g></g><g><use xlink:href="#d1QWDzrbCY" opacity="1" fill="#08b8f6" fill-opacity="1"></use><g><use xlink:href="#d1QWDzrbCY" opacity="1" fill-opacity="0" stroke="#000000" stroke-width="1" stroke-opacity="0"></use></g></g><g><use xlink:href="#aPu3lbF33" opacity="1" fill="#08b8f6" fill-opacity="1"></use><g><use xlink:href="#aPu3lbF33" opacity="1" fill-opacity="0" stroke="#000000" stroke-width="1" stroke-opacity="0"></use></g></g></g></g></svg>